<svg xmlns="http://www.w3.org/2000/svg" xmlns:xlink="http://www.w3.org/1999/xlink" version="1.1" width="256" height="256" viewBox="0 0 256 256" xml:space="preserve">
	<g style="stroke: none; stroke-width: 0; stroke-dasharray: none; stroke-linecap: butt; stroke-linejoin: miter; stroke-miterlimit: 10; fill: none; fill-rule: nonzero; opacity: 1;" transform="translate(1.4065934065934016 1.4065934065934016) scale(2.81 2.81)" >
		<path d="M 68.753 47.02 L 89.61 76.193 c 0.979 1.37 0 3.274 -1.684 3.274 H 69.182 c -1.923 0 -3.728 -0.928 -4.847 -2.493 L 42.92 47.02 c -0.864 -1.208 -0.864 -2.833 0 -4.041 l 21.415 -29.953 c 1.119 -1.565 2.924 -2.493 4.847 -2.493 h 18.744 c 1.684 0 2.663 1.904 1.684 3.274 L 68.753 42.979 C 67.889 44.188 67.889 45.812 68.753 47.02 z" style="stroke: none; stroke-width: 1; stroke-dasharray: none; stroke-linecap: butt; stroke-linejoin: miter; stroke-miterlimit: 10; fill: rgb(0,0,0); fill-rule: nonzero; opacity: 1;" transform=" matrix(1 0 0 1 0 0) " stroke-linecap="round" />
		<path d="M 26.481 47.02 l 20.857 29.173 c 0.979 1.37 0 3.274 -1.684 3.274 H 26.91 c -1.923 0 -3.728 -0.928 -4.847 -2.493 L 0.648 47.02 c -0.864 -1.208 -0.864 -2.833 0 -4.041 l 21.415 -29.953 c 1.119 -1.565 2.924 -2.493 4.847 -2.493 h 18.744 c 1.684 0 2.663 1.904 1.684 3.274 L 26.481 42.979 C 25.617 44.188 25.617 45.812 26.481 47.02 z" style="stroke: none; stroke-width: 1; stroke-dasharray: none; stroke-linecap: butt; stroke-linejoin: miter; stroke-miterlimit: 10; fill: rgb(0,0,0); fill-rule: nonzero; opacity: 1;" transform=" matrix(1 0 0 1 0 0) " stroke-linecap="round" />
	</g>
</svg>
